<svg width="25" height="24" viewBox="0 0 25 24" fill="none" xmlns="http://www.w3.org/2000/svg">
<path d="M21.2459 6.015H21.2326H3.80105H3.18088C2.14059 6.015 1.29369 5.1681 1.29369 4.12781V3.18755C1.29369 2.14726 2.14059 1.29369 3.18088 1.29369H21.3526C21.7127 1.29369 21.9994 1.00695 21.9994 0.646846C21.9994 0.286746 21.7127 0 21.3526 0H2.36065C1.05363 0 0 1.05363 0 2.36065V6.02834H21.4593C21.4193 6.02834 21.3793 6.015 21.3393 6.015H21.2526H21.2459Z" fill="#D6E1FF"/>
<path d="M0 6.38354V21.2877C0 22.7881 1.21367 24.0018 2.71409 24.0018H21.3393C22.8397 24.0018 24.0533 22.7881 24.0533 21.2877V8.72419C24.0533 7.27045 22.9064 6.09012 21.466 6.02344H0V6.37687V6.38354Z" fill="url(#paint0_linear_1958_26672)"/>
<ellipse cx="19.3387" cy="15.3365" rx="2.00055" ry="2.00055" fill="white"/>
<path d="M2.86475 2.85938H19.1505" stroke="#ECF1FF" stroke-width="0.7" stroke-linecap="round"/>
<path d="M2.86475 4.57031H19.1505" stroke="#ECF1FF" stroke-width="0.7" stroke-linecap="round"/>
<defs>
<linearGradient id="paint0_linear_1958_26672" x1="7.84968e-05" y1="6.02344" x2="24.4024" y2="16.7352" gradientUnits="userSpaceOnUse">
<stop stop-color="white"/>
<stop offset="1" stop-color="#D6E1FF"/>
</linearGradient>
</defs>
</svg>
