<svg width="30" height="30" viewBox="0 0 30 30" fill="none" xmlns="http://www.w3.org/2000/svg">
<path d="M5.88294 1.02113C5.71965 0.418033 5.17316 0 4.54829 0H1.38256C0.61834 0 0 0.61834 0 1.38256C0 2.14677 0.61834 2.76511 1.38256 2.76511H3.49232L4.71811 7.28945L8.36501 20.7536C8.54572 21.4177 9.18801 21.8487 9.8695 21.7638L11.5351 21.5548L7.10874 5.54329L5.88294 1.01896V1.02113Z" fill="white"/>
<path d="M13.1635 21.3516L25.7089 19.7839C26.2945 19.7099 26.7714 19.2723 26.8911 18.6931L29.2665 7.20812C29.3514 6.80097 29.2469 6.37859 28.9856 6.05635C28.7222 5.73412 28.3303 5.54688 27.9144 5.54688H9.12036L13.1635 21.3516Z" fill="#D6E1FF"/>
<path d="M12.5757 23.0898C10.6684 23.0898 9.12036 24.6357 9.12036 26.5451C9.12036 28.4546 10.6662 30.0005 12.5757 30.0005C14.4851 30.0005 16.031 28.4546 16.031 26.5451C16.031 24.6357 14.4851 23.0898 12.5757 23.0898Z" fill="#D6E1FF"/>
<path d="M23.6296 23.0898C21.7223 23.0898 20.1743 24.6357 20.1743 26.5451C20.1743 28.4546 21.7202 30.0005 23.6296 30.0005C25.5391 30.0005 27.0849 28.4546 27.0849 26.5451C27.0849 24.6357 25.5391 23.0898 23.6296 23.0898Z" fill="#D6E1FF"/>
<path d="M12.5 28C13.3284 28 14 27.3284 14 26.5C14 25.6716 13.3284 25 12.5 25C11.6716 25 11 25.6716 11 26.5C11 27.3284 11.6716 28 12.5 28Z" fill="white"/>
<path d="M23.5 28C24.3284 28 25 27.3284 25 26.5C25 25.6716 24.3284 25 23.5 25C22.6716 25 22 25.6716 22 26.5C22 27.3284 22.6716 28 23.5 28Z" fill="white"/>
</svg>
