<svg width="30" height="30" viewBox="0 0 30 30" fill="none" xmlns="http://www.w3.org/2000/svg">
<path fill-rule="evenodd" clip-rule="evenodd" d="M15.0099 3C8.36875 3 3 8.49998 3 15.3042C3 20.7432 6.43994 25.3472 11.2121 26.9767C11.8087 27.0992 12.0272 26.7119 12.0272 26.3862C12.0272 26.1009 12.0076 25.1232 12.0076 24.1044C8.6667 24.8379 7.97099 22.6377 7.97099 22.6377C7.43409 21.2117 6.63858 20.8452 6.63858 20.8452C5.54511 20.0914 6.71823 20.0914 6.71823 20.0914C7.93117 20.1729 8.56763 21.3544 8.56763 21.3544C9.64118 23.2284 11.3711 22.6989 12.0671 22.3729C12.1664 21.5784 12.4847 21.0284 12.8228 20.7229C10.1582 20.4377 7.35469 19.3784 7.35469 14.6522C7.35469 13.3077 7.8316 12.2077 8.58729 11.3522C8.46807 11.0467 8.0504 9.78347 8.70677 8.09273C8.70677 8.09273 9.72083 7.76673 12.0073 9.35572C12.9863 9.08639 13.9958 8.94938 15.0099 8.94823C16.024 8.94823 17.0577 9.09098 18.0123 9.35572C20.299 7.76673 21.3131 8.09273 21.3131 8.09273C21.9695 9.78347 21.5515 11.0467 21.4323 11.3522C22.2079 12.2077 22.6652 13.3077 22.6652 14.6522C22.6652 19.3784 19.8617 20.4172 17.1772 20.7229C17.6148 21.1099 17.9924 21.8432 17.9924 23.0044C17.9924 24.6544 17.9727 25.9787 17.9727 26.3859C17.9727 26.7119 18.1915 27.0992 18.7879 26.9769C23.56 25.3469 26.9999 20.7432 26.9999 15.3042C27.0196 8.49998 21.6312 3 15.0099 3Z" fill="#2F3038"/>
</svg>
