<svg xmlns="http://www.w3.org/2000/svg" width="28" height="28" viewBox="0 0 28 28" fill="none">
  <path d="M6.99964 11.6663V15.1663C6.99962 15.3478 6.95728 15.5268 6.87597 15.689L5.38964 18.6663H22.6143L21.1256 15.689C21.0435 15.527 21.0004 15.348 20.9996 15.1663V11.6663C20.9996 9.80983 20.2621 8.02935 18.9494 6.71659C17.6366 5.40384 15.8562 4.66634 13.9996 4.66634C12.1431 4.66634 10.3626 5.40384 9.04989 6.71659C7.73713 8.02935 6.99964 9.80983 6.99964 11.6663ZM9.33297 20.9997H3.49964C3.30069 20.9997 3.10504 20.9488 2.9313 20.8519C2.75756 20.7549 2.61149 20.6152 2.50697 20.4459C2.40245 20.2766 2.34296 20.0834 2.33415 19.8847C2.32534 19.6859 2.36751 19.4882 2.45664 19.3103L4.6663 14.891V11.6663C4.6663 9.19099 5.64963 6.81702 7.39997 5.06668C9.15031 3.31634 11.5243 2.33301 13.9996 2.33301C16.475 2.33301 18.849 3.31634 20.5993 5.06668C22.3496 6.81702 23.333 9.19099 23.333 11.6663V14.891L25.5426 19.3103C25.6318 19.4882 25.6739 19.6859 25.6651 19.8847C25.6563 20.0834 25.5968 20.2766 25.4923 20.4459C25.3878 20.6152 25.2417 20.7549 25.068 20.8519C24.8942 20.9488 24.6986 20.9997 24.4996 20.9997H18.6663C18.6663 22.2374 18.1746 23.4243 17.2995 24.2995C16.4243 25.1747 15.2373 25.6663 13.9996 25.6663C12.762 25.6663 11.575 25.1747 10.6998 24.2995C9.82463 23.4243 9.33297 22.2374 9.33297 20.9997ZM16.333 20.9997H11.6663C11.6663 21.6185 11.9121 22.212 12.3497 22.6496C12.7873 23.0872 13.3808 23.333 13.9996 23.333C14.6185 23.333 15.212 23.0872 15.6496 22.6496C16.0871 22.212 16.333 21.6185 16.333 20.9997Z" fill="white"/>
</svg>
