<svg width="21" height="20" viewBox="0 0 21 20" fill="none" xmlns="http://www.w3.org/2000/svg">
<g clip-path="url(#clip0_97_3994)">
<path d="M10.0008 20C15.5242 20 20.0017 15.5228 20.0017 10C20.0017 4.47715 15.5242 0 10.0008 0C4.47753 0 0 4.47715 0 10C0 15.5228 4.47753 20 10.0008 20Z" fill="#0088CC"/>
<path fill-rule="evenodd" clip-rule="evenodd" d="M7.21803 6.60868L12.8272 6.60864C13.0257 6.60864 13.224 6.63779 13.4312 6.73439C13.6796 6.85018 13.8113 7.03268 13.9036 7.16764C13.9108 7.17814 13.9175 7.18896 13.9237 7.20004C14.0323 7.39318 14.0882 7.60171 14.0882 7.82604C14.0882 8.03918 14.0375 8.27139 13.9237 8.47379C13.9227 8.47575 13.9216 8.47764 13.9205 8.47957L10.3767 14.5665C10.2985 14.7008 10.1547 14.7831 9.99934 14.7826C9.844 14.782 9.70074 14.6986 9.62356 14.5639L6.14483 8.48989C6.14383 8.48825 6.14283 8.48661 6.14183 8.48493C6.06222 8.35375 5.9391 8.15089 5.91757 7.88911C5.89778 7.64836 5.95189 7.40714 6.07286 7.198C6.19384 6.98882 6.37596 6.82161 6.59502 6.71925C6.82989 6.6095 7.06791 6.60868 7.21803 6.60868ZM9.56605 7.47821H7.21803C7.06377 7.47821 7.00455 7.48771 6.96315 7.50707C6.9059 7.53379 6.85782 7.57775 6.82568 7.63332C6.79353 7.68893 6.779 7.75336 6.78428 7.81786C6.78732 7.85482 6.80239 7.89711 6.89129 8.04371C6.89315 8.04679 6.89497 8.04989 6.89675 8.053L9.56605 12.7137V7.47821ZM10.4357 7.47821V12.7367L13.1668 8.04561C13.1976 7.98961 13.2185 7.90868 13.2185 7.82604C13.2185 7.759 13.2046 7.70079 13.1736 7.64079C13.141 7.59389 13.1211 7.56907 13.1045 7.55207C13.0902 7.53754 13.0793 7.52975 13.0638 7.52254C12.9992 7.49243 12.9331 7.47821 12.8272 7.47821H10.4357Z" fill="white"/>
</g>
<defs>
<clipPath id="clip0_97_3994">
<rect width="20.0017" height="20" fill="white"/>
</clipPath>
</defs>
</svg>
