<svg width="21" height="19" viewBox="0 0 21 19" fill="none" xmlns="http://www.w3.org/2000/svg">
<path d="M20.7713 11.424C20.7713 11.424 20.8028 11.2978 20.8344 11.2347C20.929 10.8878 20.9605 10.5724 20.9605 10.1939V8.45911C20.9605 8.11216 20.8975 7.7652 20.8344 7.41825C20.8344 7.35517 20.8028 7.29209 20.7713 7.229C20.6767 6.94513 20.582 6.66126 20.4243 6.40893C20.4243 6.40893 20.3928 6.34585 20.3613 6.31431C19.9828 5.68348 19.4781 5.14728 18.8473 4.76879C18.8473 4.67417 18.8157 4.61108 18.7842 4.548C18.7842 4.3903 18.7211 4.26413 18.6896 4.10642C18.658 3.91718 18.595 3.75947 18.5319 3.57022C18.4688 3.44406 18.4372 3.31789 18.3742 3.16019C18.3111 3.00248 18.2165 2.84477 18.1218 2.68707C18.0588 2.5609 17.9641 2.43474 17.901 2.34012C17.8064 2.18241 17.6803 2.05624 17.5541 1.93008C17.4595 1.83546 17.3648 1.70929 17.2702 1.61467C17.1441 1.4885 16.9863 1.36234 16.8286 1.26771C16.734 1.17309 16.6079 1.11001 16.5132 1.01538C16.3555 0.920761 16.1663 0.826137 16.0086 0.731513C15.8824 0.668431 15.7878 0.605348 15.6616 0.573807C15.4724 0.479183 15.2516 0.447642 15.0308 0.38456C14.9362 0.38456 14.8415 0.321478 14.7154 0.289937C14.4 0.226854 14.053 0.195312 13.7061 0.195312H5.78922C2.95051 0.195312 0.616455 2.49782 0.616455 5.36807V13.2849C0.616455 16.1236 2.91896 18.4577 5.78922 18.4577H13.7061C14.053 18.4577 14.3684 18.4261 14.7154 18.3631C14.8415 18.3631 14.9362 18.3 15.0623 18.2684C15.2516 18.2054 15.4408 18.1738 15.6301 18.0792C15.7878 18.0161 15.9455 17.9215 16.1032 17.8584C16.2294 17.7953 16.3555 17.7322 16.4501 17.6691C16.6394 17.543 16.8286 17.4168 16.9863 17.2591C17.0494 17.2276 17.081 17.1645 17.1441 17.1329C17.3648 16.9437 17.5541 16.7229 17.7433 16.5021C18.3111 15.7767 18.6896 14.8935 18.8157 13.9473C18.8157 13.9473 18.8157 13.9473 18.8157 13.9157C19.4466 13.5372 19.9828 13.001 20.3297 12.3702C20.3297 12.3702 20.3613 12.3071 20.3928 12.2756C20.5505 12.0233 20.6451 11.7394 20.7398 11.4555L20.7713 11.424ZM16.6709 6.56664C16.8602 6.56664 17.0494 6.62972 17.2071 6.6928H17.2702C17.4279 6.78743 17.5856 6.88205 17.7433 6.97668C17.7433 6.97668 17.8064 7.00822 17.838 7.03976C17.9326 7.13438 18.0272 7.229 18.1218 7.32363C18.1849 7.41825 18.248 7.51288 18.3111 7.6075C18.3426 7.70212 18.4057 7.76521 18.4372 7.85983C18.5003 8.08062 18.5634 8.26986 18.5634 8.52219V10.257C18.5634 10.4777 18.5003 10.6985 18.4372 10.9193C18.4057 11.014 18.3742 11.077 18.3111 11.1717C18.248 11.2663 18.1849 11.3609 18.1218 11.4555C18.0272 11.5501 17.9641 11.6448 17.838 11.7394C17.8064 11.7394 17.7749 11.7709 17.7433 11.8025C17.6172 11.8971 17.4595 11.9917 17.3018 12.0548C17.1125 12.1494 16.9233 12.181 16.7025 12.181H14.9677C13.9269 12.181 13.0752 11.3294 13.0752 10.2885V8.55374C13.0752 7.51288 13.9269 6.66126 14.9677 6.66126H16.7025L16.6709 6.56664ZM5.82076 16.029C4.30678 16.029 3.07667 14.7989 3.07667 13.2849V5.36807C3.07667 3.85409 4.30678 2.62399 5.82076 2.62399H13.7376C14.81 2.62399 15.7247 3.25481 16.1978 4.16951H14.9677C12.6021 4.16951 10.6781 6.09352 10.6781 8.45911V10.1939C10.6781 12.5595 12.6021 14.4835 14.9677 14.4835H16.1978C15.7562 15.3982 14.8415 16.029 13.7376 16.029H5.82076Z" fill="url(#paint0_linear_2054_13465)"/>
<defs>
<linearGradient id="paint0_linear_2054_13465" x1="10.0521" y1="0.0811155" x2="16.3038" y2="19.604" gradientUnits="userSpaceOnUse">
<stop stop-color="#F3F6FC"/>
<stop offset="1" stop-color="#E6E7F7"/>
</linearGradient>
</defs>
</svg>
