<svg width="30" height="30" viewBox="0 0 30 30" fill="none" xmlns="http://www.w3.org/2000/svg">
<path d="M24.0245 6.67497C22.3162 5.88121 20.5129 5.31809 18.6605 5C18.407 5.45992 18.1776 5.93311 17.9734 6.4176C16.0002 6.11582 13.9936 6.11582 12.0204 6.4176C11.816 5.93316 11.5867 5.45997 11.3333 5C9.47969 5.32078 7.67515 5.88524 5.96521 6.67912C2.57053 11.7767 1.65029 16.7476 2.11041 21.648C4.09842 23.1388 6.32356 24.2725 8.68913 25C9.22178 24.2729 9.69312 23.5015 10.0981 22.6941C9.32887 22.4025 8.5864 22.0427 7.87931 21.6189C8.06541 21.4819 8.24741 21.3408 8.42328 21.2038C10.4807 22.1859 12.7263 22.695 15 22.695C17.2736 22.695 19.5192 22.1859 21.5766 21.2038C21.7545 21.3512 21.9365 21.4923 22.1206 21.6189C21.4121 22.0434 20.6683 22.4038 19.8977 22.6961C20.3022 23.5032 20.7736 24.2739 21.3067 25C23.6743 24.2755 25.9011 23.1422 27.8895 21.6501C28.4294 15.9672 26.9672 11.0419 24.0245 6.67497ZM10.6809 18.6343C9.39874 18.6343 8.33944 17.4533 8.33944 16.0004C8.33944 14.5475 9.36193 13.3562 10.6769 13.3562C11.9918 13.3562 13.0429 14.5475 13.0204 16.0004C12.9979 17.4533 11.9877 18.6343 10.6809 18.6343ZM19.319 18.6343C18.0347 18.6343 16.9795 17.4533 16.9795 16.0004C16.9795 14.5475 18.002 13.3562 19.319 13.3562C20.6359 13.3562 21.6789 14.5475 21.6564 16.0004C21.6339 17.4533 20.6257 18.6343 19.319 18.6343Z" fill="#2F3038"/>
</svg>
