<svg width="21" height="20" viewBox="0 0 21 20" fill="none" xmlns="http://www.w3.org/2000/svg">
<path d="M17.7036 5.01213H17.6925H3.16731H2.65054C1.7837 5.01213 1.078 4.30643 1.078 3.43959V2.6561C1.078 1.78925 1.7837 1.078 2.65054 1.078H17.7925C18.0926 1.078 18.3315 0.83906 18.3315 0.538999C18.3315 0.238938 18.0926 0 17.7925 0H1.96707C0.877957 0 0 0.877957 0 1.96707V5.02325H17.8814C17.8481 5.02325 17.8147 5.01213 17.7814 5.01213H17.7092H17.7036Z" fill="#1F53FF"/>
<path d="M0 5.31959V17.7388C0 18.989 1.01132 20.0004 2.26157 20.0004H17.7814C19.0317 20.0004 20.043 18.989 20.043 17.7388V7.26999C20.043 6.05863 19.0872 5.0751 17.887 5.01953H0V5.31404V5.31959Z" fill="#007AFF"/>
<ellipse cx="16.1143" cy="12.7803" rx="1.66701" ry="1.66701" fill="white"/>
<path d="M2.38721 2.38281H15.9576" stroke="#767680" stroke-width="0.7" stroke-linecap="round"/>
<path d="M2.38721 3.80859H15.9576" stroke="#767680" stroke-width="0.7" stroke-linecap="round"/>
</svg>
