<svg width="26" height="20" viewBox="0 0 26 20" fill="none" xmlns="http://www.w3.org/2000/svg">
<path d="M10.0227 0H5.33502C5.2462 0 5.16725 0.0364712 5.10804 0.100296L0.0551933 6.25481C-0.0829705 6.42805 0.0551933 6.66511 0.282177 6.66511H7.45683C7.57525 6.66511 7.67394 6.60128 7.71342 6.50099L10.2793 0.355594C10.3484 0.182356 10.2102 0 10.0227 0Z" fill="#C7D6FF"/>
<path d="M17.7007 6.30951L15.2039 0.16412C15.1644 0.0638246 15.0558 0 14.9374 0H11.1379C11.0195 0 10.9208 0.0638246 10.8813 0.16412L8.30556 6.31863C8.23648 6.49187 8.37464 6.67422 8.56215 6.67422H17.4244C17.6217 6.66511 17.75 6.48275 17.6908 6.30951H17.7007Z" fill="#658EFF"/>
<path d="M18.3521 6.67422H25.5662C25.7932 6.67422 25.9313 6.42804 25.7932 6.26392L20.8588 0.100296C20.8094 0.0364712 20.7206 0 20.6318 0H16.0724C15.875 0 15.7467 0.182356 15.8059 0.346476L18.3619 6.64687V6.67422H18.3521Z" fill="#007AFF"/>
<path d="M0.173654 7.55744L11.434 19.4106C11.6314 19.6203 12.0064 19.4288 11.9077 19.1644L7.7924 7.31126C7.75293 7.20185 7.64437 7.12891 7.52594 7.12891H0.380899C0.144047 7.12891 0.0157522 7.39332 0.173654 7.55744Z" fill="#007AFF"/>
<path d="M8.35493 7.46626L12.6479 19.8209C12.7268 20.0579 13.092 20.0579 13.1808 19.8209L17.5527 7.46626C17.6119 7.30214 17.4737 7.12891 17.2862 7.12891H8.62139C8.43388 7.12891 8.29572 7.30214 8.35493 7.46626Z" fill="#007AFF"/>
<path d="M14.4243 19.3832L25.6649 7.55744C25.8228 7.39332 25.6945 7.12891 25.4576 7.12891H18.4014C18.283 7.12891 18.1744 7.20185 18.135 7.31126L13.9506 19.137C13.8519 19.4015 14.2269 19.602 14.4243 19.3923V19.3832Z" fill="#007AFF"/>
</svg>
