<svg width="16" height="16" viewBox="0 0 16 16" fill="none" xmlns="http://www.w3.org/2000/svg">
<path d="M1.59998 1.24609C1.18576 1.24609 0.849976 1.58188 0.849976 1.99609C0.849976 2.41031 1.18576 2.74609 1.59998 2.74609V1.24609ZM3.12833 1.99609L3.85225 1.80003C3.76371 1.47311 3.46704 1.24609 3.12833 1.24609V1.99609ZM5.61192 11.1662L4.888 11.3623C4.9857 11.7231 5.33409 11.9568 5.70494 11.9105L5.61192 11.1662ZM13.2537 10.211L13.3467 10.9552C13.6652 10.9154 13.9231 10.6773 13.9881 10.363L13.2537 10.211ZM14.4 4.67072L15.1344 4.82268C15.1801 4.60179 15.124 4.37206 14.9816 4.19715C14.8391 4.02224 14.6255 3.92072 14.4 3.92072V4.67072ZM3.85271 4.67072L3.12879 4.86678L3.12879 4.86678L3.85271 4.67072ZM1.59998 2.74609H3.12833V1.24609H1.59998V2.74609ZM5.70494 11.9105L13.3467 10.9552L13.1607 9.46681L5.51889 10.422L5.70494 11.9105ZM13.9881 10.363L15.1344 4.82268L13.6655 4.51877L12.5193 10.0591L13.9881 10.363ZM2.40441 2.19216L3.12879 4.86678L4.57663 4.47466L3.85225 1.80003L2.40441 2.19216ZM3.12879 4.86678L4.888 11.3623L6.33584 10.9702L4.57663 4.47466L3.12879 4.86678ZM14.4 3.92072H3.85271V5.42072H14.4V3.92072ZM7.24998 13.6676C7.24998 13.8057 7.13805 13.9176 6.99998 13.9176V15.4176C7.96647 15.4176 8.74998 14.6341 8.74998 13.6676H7.24998ZM6.99998 13.9176C6.8619 13.9176 6.74998 13.8057 6.74998 13.6676H5.24998C5.24998 14.6341 6.03348 15.4176 6.99998 15.4176V13.9176ZM6.74998 13.6676C6.74998 13.5295 6.8619 13.4176 6.99998 13.4176V11.9176C6.03348 11.9176 5.24998 12.7011 5.24998 13.6676H6.74998ZM6.99998 13.4176C7.13805 13.4176 7.24998 13.5295 7.24998 13.6676H8.74998C8.74998 12.7011 7.96647 11.9176 6.99998 11.9176V13.4176ZM12.5833 13.6676C12.5833 13.8057 12.4714 13.9176 12.3333 13.9176V15.4176C13.2998 15.4176 14.0833 14.6341 14.0833 13.6676H12.5833ZM12.3333 13.9176C12.1952 13.9176 12.0833 13.8057 12.0833 13.6676H10.5833C10.5833 14.6341 11.3668 15.4176 12.3333 15.4176V13.9176ZM12.0833 13.6676C12.0833 13.5295 12.1952 13.4176 12.3333 13.4176V11.9176C11.3668 11.9176 10.5833 12.7011 10.5833 13.6676H12.0833ZM12.3333 13.4176C12.4714 13.4176 12.5833 13.5295 12.5833 13.6676H14.0833C14.0833 12.7011 13.2998 11.9176 12.3333 11.9176V13.4176Z" fill="white"/>
</svg>
