<svg xmlns="http://www.w3.org/2000/svg" width="16" height="16" viewBox="0 0 16 16" fill="none">
  <path d="M8.00016 2.66634C10.9408 2.66634 13.3335 5.05901 13.3335 7.99967C13.3335 10.9403 10.9408 13.333 8.00016 13.333C5.0595 13.333 2.66683 10.9403 2.66683 7.99967C2.66683 5.05901 5.0595 2.66634 8.00016 2.66634ZM8.00016 1.33301C4.31816 1.33301 1.3335 4.31767 1.3335 7.99967C1.3335 11.6817 4.31816 14.6663 8.00016 14.6663C11.6822 14.6663 14.6668 11.6817 14.6668 7.99967C14.6668 4.31767 11.6822 1.33301 8.00016 1.33301ZM8.66683 9.99967H7.3335V11.333H8.66683V9.99967ZM7.3335 8.66634H8.66683L9.00016 4.66634H7.00016L7.3335 8.66634Z" fill="#909394"/>
</svg>
